<?xml version="1.0" encoding="iso-8859-1"?>
<!-- Generator: Adobe Illustrator 16.0.0, SVG Export Plug-In . SVG Version: 6.00 Build 0)  -->
<!DOCTYPE svg PUBLIC "-//W3C//DTD SVG 1.1//EN" "http://www.w3.org/Graphics/SVG/1.1/DTD/svg11.dtd">
<svg version="1.1" id="Layer_1" xmlns="http://www.w3.org/2000/svg" xmlns:xlink="http://www.w3.org/1999/xlink" x="0px" y="0px"
	 width="612px" height="792px" viewBox="0 0 612 792" style="enable-background:new 0 0 612 792;" xml:space="preserve">
<g>
	<path style="fill-rule:evenodd;clip-rule:evenodd;fill:#FFFFFF;stroke:#383838;stroke-width:0.216;stroke-miterlimit:2.6131;" d="
		M289.162,300.153c-0.846-0.54-3.007-2.561-6.343-3.947c-3.336-1.385-7.847-2.137-11.935-1.691
		c-4.088,0.447-7.752,2.091-11.394,5.074c-3.642,2.984-7.259,7.307-10.783,13.603c-3.524,6.296-6.955,14.565-9.703,22.153
		c-2.75,7.588-4.816,14.495-5.944,18.042c-1.127,3.547-1.315,3.736-1.997,4.111c-0.681,0.375-1.856,0.94-3.336,2.255
		s-3.266,3.383-5.168,6.014c-1.903,2.631-3.924,5.826-6.414,9.562c-2.49,3.735-5.451,8.011-7.752,11.229
		c-2.303,3.219-3.947,5.38-4.934,6.014c-0.987,0.635-1.316-0.258-1.786-1.221c-0.47-0.963-1.081-1.998-1.245-3.337
		c-0.165-1.339,0.117-2.983-0.094-4.229c-0.211-1.245-0.916-2.09-1.503-2.678c-0.587-0.587-1.058-0.917-0.939-1.081
		c0.117-0.164,0.821-0.164,1.55-0.235c0.728-0.07,1.48-0.211,1.48-0.469c0-0.259-0.752-0.635-1.198-1.151
		c-0.447-0.517-0.588-1.174-0.376-1.527c0.211-0.352,0.776-0.4,1.339-0.541c0.563-0.141,1.128-0.375,1.128-0.634
		s-0.564-0.54-1.222-0.963c-0.658-0.422-1.41-0.986-2.162-1.174c-0.752-0.188-1.503,0-1.997-0.447
		c-0.494-0.446-0.729-1.526-0.987-2.631s-0.541-2.232-1.057-2.631s-1.269-0.07-1.739,0.375c-0.275,0.262-0.453,0.563-0.601,0.867
		c-0.113-0.099-0.231-0.206-0.352-0.323c-0.952-0.916-2.123-2.439-3.181-4.161c-1.059-1.721-2.002-3.639-2.449-5.753
		c-0.446-2.115-0.395-4.425-0.234-6.014c0.045-0.442,0.098-0.828,0.15-1.168c0.227,0.304,0.472,0.595,0.745,0.881
		c0.24,0.252,0.676,0.144,0.518-0.129c-0.388-0.67-0.653-1.314-0.838-2.065c0.892,0.191,1.691,0.285,2.605,0.289
		c0.359,0.001,0.462-0.361,0.102-0.436c-0.875-0.181-1.646-0.457-2.441-0.861c0.56-0.495,1.153-0.956,1.708-1.457
		c0.238-0.215-0.015-0.52-0.325-0.366c-0.742,0.37-1.444,0.615-2.219,0.891c-0.157-0.605-0.241-1.196-0.247-1.821
		c-0.002-0.213,0.069-0.761-0.344-0.633c-0.391,0.12-0.568,2.055-0.583,2.453c-0.645-0.284-1.304-0.59-1.981-0.781
		c-0.222-0.063-0.387,0.246-0.28,0.458c0.053,0.106,1.709,1.281,1.931,1.434c-0.439,0.555-0.765,1.118-1.023,1.777
		c-0.105,0.267,0.267,0.631,0.443,0.436c0.205-0.227,0.413-0.426,0.633-0.61c-0.08,1.362-0.072,3.148,0.14,4.906
		c0.317,2.637,1.093,5.209,2.279,7.817c1.187,2.607,2.784,5.25,3.565,6.907l0.121,0.263c-0.523,0.225-1.202,0.399-1.717,0.935
		c-0.587,0.611-0.963,1.691-1.409,3.359c-0.446,1.668-0.963,3.924-1.104,5.286c-0.141,1.363,0.094,1.833,1.128,3.36
		c1.033,1.527,2.865,4.111,3.57,5.567c0.705,1.457,0.282,1.786-0.211,2.443c-0.494,0.658-1.058,1.645-0.775,2.443
		c0.282,0.799,1.409,1.41,1.997,2.068c0.587,0.658,0.634,1.363,0.352,2.279s-0.893,2.044-0.917,3.688s0.541,3.806,2.068,6.507
		c1.527,2.702,4.017,5.944,6.155,7.377c2.137,1.434,3.923,1.058,6.296-0.047c2.372-1.104,5.333-2.936,7.94-5.544
		c2.607-2.607,4.863-5.99,7.377-9.938c2.513-3.947,5.285-8.458,6.625-10.149c1.339-1.691,1.245-0.564,1.104,1.339
		s-0.329,4.582-0.846,6.884c-0.517,2.303-1.362,4.229-2.043,4.393c-0.681,0.165-1.199-1.432-1.175-2.678
		c0.023-1.245,0.588-2.138,0.518-2.349c-0.071-0.212-0.776,0.259-1.339,1.386c-0.564,1.128-0.987,2.913-0.705,4.229
		c0.282,1.315,1.269,2.162,2.231,2.42c0.963,0.259,1.903-0.071,3.078-1.692c1.175-1.62,2.584-4.533,3.29-4.557
		c0.705-0.023,0.705,2.843,0.517,5.004s-0.564,3.618-1.01,4.487c-0.447,0.869-0.964,1.15-1.598,1.01s-1.386-0.705-2.278-0.446
		c-0.893,0.259-1.927,1.339-2.772,1.974c-0.846,0.635-1.503,0.822-1.973,1.574s-0.751,2.067-1.315,2.912
		c-0.564,0.847-1.41,1.223-1.856,1.903c-0.447,0.682-0.494,1.669-0.681,2.585c-0.188,0.916-0.518,1.762-0.494,2.607
		c0.023,0.846,0.399,1.691,0.61,2.537s0.259,1.691-0.375,2.771c-0.634,1.081-1.95,2.396-3.453,4.77
		c-1.504,2.373-3.195,5.803-4.37,9.562s-1.832,7.847-1.009,11.629c0.391,1.8,1.118,3.53,2.983,5.143
		c-1.822-0.123-3.579-0.248-5.263-0.375c-22.119-1.656-31.68-3.465-37.083-4.264c-5.404-0.799-6.649-0.587-7.459,0.364
		c-0.811,0.951-1.187,2.643-1.691,4.793c-0.506,2.149-1.14,4.757-1.216,6.401c-0.076,1.646,0.407,2.327,1.334,3.639
		c0.927,1.313,2.299,3.254,3.191,4.646c0.893,1.392,1.306,2.233,7.884,3.47c2.479,0.467,5.835,0.989,9.911,1.528
		c-0.613,4.918-1.812,12.796-2.739,20.999c-0.424,3.751-0.792,7.568-1.113,11.191c-0.321-0.745-0.652-1.405-0.901-1.811
		c0.042-0.26,0.088-0.521,0.137-0.782c0.495-2.643,1.329-5.368,1.312-6.026c-0.018-0.658-0.887,0.751-1.896,2.818
		c-1.011,2.067-2.163,4.793-2.925,7.107c-0.763,2.313-1.136,4.217-1.45,4.463c-0.314,0.247-0.57-1.162-0.777-2.9
		c-0.206-1.739-0.363-3.806-0.256-6.602s0.478-6.319,0.193-6.907c-0.284-0.587-1.223,1.762-1.863,4.146
		c-0.639,2.385-0.981,4.805-1.211,6.989c-0.229,2.185-0.348,4.135-0.713,4.04c-0.365-0.094-0.976-2.231-1.216-4.745
		c-0.24-2.514-0.108-5.403,0.523-9.068c0.63-3.664,1.761-8.104,1.683-8.868c-0.079-0.764-1.366,2.149-2.172,5.156
		c-0.807,3.008-1.133,6.108-1.42,8.963c-0.285,2.854-0.532,5.462-0.74,5.943c-0.21,0.481-0.383-1.162-1.015-3.782
		c-0.632-2.619-1.725-6.214-2.098-6.777c-0.374-0.564-0.027,1.903,0.022,4.992c0.049,3.089-0.196,6.802-0.416,8.058
		c-0.218,1.257-0.409,0.059-1.039-1.633c-0.628-1.691-1.696-3.876-2.925-6.037c-1.229-2.161-2.617-4.299-2.822-4.146
		c-0.203,0.152,0.78,2.596,1.34,4.945c0.56,2.349,0.697,4.604,0.62,6.848c-0.078,2.244-0.371,4.476-0.626,4.852
		c-0.257,0.376-0.476-1.104-0.725-2.702c-0.25-1.597-0.53-3.312-1.162-5.121c-0.631-1.809-1.613-3.712-1.822-3.642
		c-0.209,0.07,0.354,2.114,0.511,4.182c0.157,2.067-0.092,4.158-1.038,6.437c-0.706,1.701-1.8,3.506-2.045,4.757
		c-1.968,0.247-2.592,0.543-2.619,0.905c-0.045,0.592,1.497,1.36,3.142,2.23h27.055h16.526h210.014h21.31h29.255
		c0.153-0.117,0.317-0.234,0.498-0.351c2.772-1.785,9.162-3.477,9.21-4.558c0.016-0.381-0.756-0.686-2.32-0.919
		c-0.239-1.167-0.823-2.622-1.189-4.018c-0.589-2.243-0.613-4.332-0.301-6.419c0.313-2.085,0.962-4.167,0.793-4.228
		c-0.168-0.061-1.153,1.9-1.838,3.749c-0.685,1.85-1.069,3.587-1.418,5.205s-0.661,3.116-0.842,2.751
		c-0.18-0.365-0.229-2.594-0.097-4.846c0.133-2.251,0.445-4.524,1.118-6.913c0.673-2.39,1.707-4.894,1.551-5.037
		c-0.157-0.144-1.502,2.074-2.716,4.307s-2.296,4.481-2.969,6.212c-0.673,1.731-0.938,2.945-1.01,1.693
		c-0.071-1.253,0.049-4.973,0.361-8.08c0.312-3.107,0.817-5.604,0.456-5.02c-0.36,0.586-1.586,4.253-2.344,6.916
		c-0.757,2.664-1.045,4.325-1.178,3.852c-0.132-0.474-0.107-3.083-0.096-5.938c0.013-2.854,0.013-5.956-0.396-8.939
		c-0.408-2.983-1.226-5.848-1.358-5.076c-0.132,0.771,0.421,5.179,0.625,8.831c0.204,3.653,0.061,6.551-0.36,9.09
		c-0.421,2.538-1.117,4.717-1.43,4.829s-0.239-1.842-0.239-4.026s-0.073-4.601-0.397-6.966s-0.901-4.68-1.19-4.076
		c-0.288,0.604-0.288,4.128-0.444,6.934c-0.156,2.805-0.469,4.89-0.793,6.647s-0.661,3.187-0.901,2.954s-0.384-2.127-0.817-4.416
		c-0.433-2.288-1.154-4.972-1.814-6.999c-0.661-2.029-1.262-3.402-1.334-2.74s0.385,3.36,0.564,5.992
		c0.181,2.633,0.085,5.198-0.288,7.335s-1.021,3.843-1.441,3.292c-0.421-0.551-0.613-3.359-0.998-5.874
		c-0.384-2.515-0.962-4.735-1.574-6.484c-0.613-1.75-1.262-3.027-1.298-1.615c-0.036,1.411,0.541,5.512,0.528,8.603
		c-0.011,3.09-0.612,5.168-1.334,6.292c-0.143,0.223-0.291,0.407-0.442,0.565c-0.079-0.067-0.156-0.14-0.232-0.216
		c-1.077-1.081-1.976-3.124-1.993-6.214c-0.019-3.089,0.845-7.224,0.79-8.633c-0.054-1.41-1.023-0.094-1.938,1.691
		c-0.917,1.785-1.779,4.04-2.353,6.577c-0.575,2.537-0.862,5.357-1.491,5.933c-0.184,0.168-0.396,0.144-0.619-0.026
		c-0.224-5.789-0.747-12.797-1.364-19.354c-0.822-8.739-1.81-16.68-3.148-23.234c-0.513-2.509-1.076-4.813-1.692-6.827
		c5.023-1.21,5.658-1.463,6.186-1.674c0.704-0.282,1.216-0.486,2.433-2.403s3.14-5.546,3.754-7.598
		c0.289-0.969,0.287-1.586,0.157-2.188c0.404,0.282,0.805,0.484,1.151,0.609c1.104,0.399,1.668,0.024,2.679-1.526
		c1.01-1.551,2.466-4.276,3.124-5.921c0.657-1.644,0.518-2.208-0.047-3.241s-1.551-2.538-1.691-3.148s0.563-0.328,1.48-0.117
		c0.916,0.212,2.043,0.353,2.865,0.939c0.822,0.588,1.339,1.621,2.044,2.937c0.705,1.316,1.598,2.913,2.819,3.759
		s2.772,0.94,2.984,0.376c0.211-0.563-0.917-1.785-1.715-3.523c-0.8-1.738-1.27-3.994-1.621-5.521
		c-0.354-1.526-0.588-2.325-1.527-2.843c-0.94-0.517-2.584-0.751-4.346-1.197c-1.763-0.447-3.643-1.104-5.357-1.269
		c-1.715-0.165-3.266,0.164-5.497,0.963s-5.146,2.067-7.588,2.772c-2.443,0.705-4.417,0.846-6.437-0.353
		c-2.021-1.198-4.088-3.735-6.484-6.438c-2.396-2.701-5.122-5.567-8.246-10.125c-3.125-4.558-6.648-10.807-9.797-16.374
		c-3.147-5.567-5.92-10.454-9.514-16.681c-3.595-6.226-8.012-13.79-12.193-20.65c-4.181-6.86-8.128-13.015-12.427-16.727
		c-4.3-3.712-8.951-4.98-12.264-5.239c-3.313-0.258-5.286,0.494-6.461,0.376c-1.175-0.117-1.55-1.104-2.208-2.091
		c-0.658-0.986-1.598-1.973-2.278-3.266c-0.682-1.292-1.104-2.889-0.87-3.923c0.235-1.034,1.128-1.503,2.326-3.078
		c1.198-1.573,2.702-4.251,3.571-6.671c0.869-2.419,1.104-4.581,1.715-5.591c0.61-1.01,1.597-0.869,2.913-1.503
		c1.315-0.635,2.96-2.043,4.064-3.735c1.104-1.692,1.668-3.666,1.926-5.451c0.259-1.785,0.211-3.383-0.47-4.558
		c-0.681-1.174-1.997-1.926-2.42-3.007s0.048-2.49,0.142-4.393c0.094-1.903-0.188-4.299-0.399-6.038
		c-0.212-1.738-0.353-2.819-0.094-3.03s0.916,0.446,1.222,0.258c0.305-0.188,0.258-1.222-0.142-2.655
		c-0.399-1.433-1.151-3.265-1.08-3.923c0.07-0.658,0.963-0.141,1.762,0.023c0.799,0.165,1.503-0.023,1.409-0.423
		c-0.094-0.399-0.986-1.01-1.832-2.161s-1.645-2.843-2.983-4.299c-1.34-1.456-3.219-2.678-3.782-3.289
		c-0.564-0.61,0.188-0.61,1.057-0.775s1.855-0.494,1.668-0.87c-0.188-0.375-1.551-0.798-3.43-2.02
		c-1.88-1.222-4.276-3.243-6.742-4.464c-2.468-1.222-5.004-1.644-8.012-1.339c-3.007,0.305-6.484,1.339-8.199,1.55
		c-1.715,0.211-1.667-0.399-0.915-1.245c0.751-0.845,2.208-1.926,2.442-2.373c0.235-0.446-0.751-0.258-1.855,0.399
		c-1.104,0.658-2.326,1.785-3.336,2.067c-1.011,0.283-1.81-0.282-3.407-0.61s-3.993-0.423-4.651-0.376
		c-0.658,0.047,0.423,0.235,1.222,0.61c0.798,0.376,1.315,0.94,0.07,1.668c-1.245,0.728-4.252,1.621-6.39,2.866
		s-3.406,2.843-5.004,4.088c-1.598,1.245-3.524,2.138-4.064,2.725s0.305,0.869,1.104,0.916s1.55-0.141,1.245,0.446
		c-0.306,0.588-1.668,1.95-2.537,3.83c-0.87,1.879-1.245,4.275-1.127,6.578c0.117,2.303,0.728,4.511,0.822,6.038
		c0.094,1.527-0.329,2.373-0.305,3.266S290.007,300.693,289.162,300.153L289.162,300.153z M268.758,485.17
		c-0.273,0.719-0.568,1.441-0.899,2.153c-1.433,3.077-3.547,5.943-8.263,10.949c-1.173,1.245-2.507,2.623-3.919,4.079
		c0.029,3.278,0.004,7.844,0.225,11.06c0.317,4.604,1.14,6.437,1.75,5.356c0.611-1.081,1.01-5.075,1.245-7.859
		c0.235-2.783,0.306-4.357,0.94-2.689c0.634,1.668,1.832,6.578,3.125,10.056c0.573,1.541,1.164,2.801,1.724,3.838
		c0.176-0.498,0.352-1.003,0.502-1.5c0.691-2.278,0.874-4.369,0.759-6.437c-0.115-2.067-0.526-4.111-0.374-4.182
		s0.871,1.833,1.332,3.642c0.461,1.81,0.667,3.524,0.849,5.121c0.182,1.598,0.343,3.078,0.53,2.702
		c0.187-0.376,0.401-2.607,0.458-4.852c0.057-2.243-0.044-4.499-0.454-6.848c-0.409-2.35-1.127-4.793-0.979-4.945
		c0.149-0.152,1.165,1.985,2.063,4.146c0.898,2.161,1.679,4.346,2.138,6.037c0.46,1.691,0.6,2.89,0.759,1.633
		c0.161-1.256,0.34-4.969,0.304-8.058c-0.036-3.089-0.289-5.557-0.016-4.992c0.273,0.563,1.071,4.158,1.533,6.777
		c0.462,2.62,0.589,4.264,0.742,3.782c0.152-0.481,0.333-3.089,0.541-5.943c0.209-2.854,0.448-5.955,1.038-8.963
		c0.589-3.007,1.53-5.92,1.587-5.156c0.057,0.764-0.77,5.204-1.23,8.868c-0.461,3.665-0.557,6.555-0.382,9.068
		s0.622,4.651,0.889,4.745c0.266,0.095,0.353-1.855,0.521-4.04c0.168-2.185,0.418-4.604,0.886-6.989s1.155-4.733,1.362-4.146
		c0.208,0.588-0.063,4.111-0.141,6.907c-0.079,2.796,0.037,4.862,0.187,6.602c0.151,1.738,0.338,3.147,0.568,2.9
		c0.229-0.246,0.502-2.149,1.06-4.463c0.557-2.314,1.399-5.04,2.139-7.107c0.738-2.067,1.373-3.477,1.386-2.818
		c0.012,0.658-0.598,3.384-0.959,6.026s-0.475,5.203-0.31,7.317c0.164,2.114,0.604,3.782,1.018,3.207
		c0.414-0.575,0.799-3.396,1.332-5.933c0.532-2.537,1.211-4.792,1.886-6.577s1.345-3.102,1.269-1.691
		c-0.077,1.409-0.901,5.544-1.128,8.633c-0.228,3.09,0.143,5.133,0.691,6.214c0.391,0.77,0.874,1.051,1.392,1.302
		c0.745-0.251,1.437-0.532,1.997-1.302c0.788-1.081,1.318-3.124,0.992-6.214c-0.326-3.089-1.508-7.224-1.619-8.633
		c-0.11-1.41,0.852-0.094,1.82,1.691s1.943,4.04,2.707,6.577c0.765,2.537,1.317,5.357,1.91,5.933
		c0.593,0.575,1.225-1.093,1.46-3.207c0.236-2.114,0.074-4.675-0.445-7.317c-0.518-2.643-1.394-5.368-1.376-6.026
		c0.018-0.658,0.93,0.751,1.989,2.818c1.06,2.067,2.269,4.793,3.068,7.107c0.8,2.313,1.191,4.217,1.521,4.463
		c0.33,0.247,0.598-1.162,0.814-2.9c0.215-1.739,0.381-3.806,0.268-6.602c-0.112-2.796-0.501-6.319-0.203-6.907
		c0.298-0.587,1.283,1.762,1.955,4.146c0.671,2.385,1.029,4.805,1.271,6.989c0.241,2.185,0.365,4.135,0.747,4.04
		c0.066-0.016,0.14-0.093,0.218-0.222c0.02-0.593,0.029-1.213,0.019-1.857c-0.082-4.945-1.375-11.43-3.43-17.185
		c-1.826-5.11-4.252-9.646-6.171-12.383C289.066,485.287,278.466,485.277,268.758,485.17L268.758,485.17z M253.99,504.09
		c-1.783,1.842-3.634,3.768-5.403,5.68c0.273,0.95,0.567,1.978,0.866,2.96c0.917,3.008,1.879,5.591,2.42,5.556
		c0.54-0.035,0.658-2.689,0.986-5.873C253.13,509.794,253.544,506.816,253.99,504.09L253.99,504.09z M247.43,511.032
		c-1.191,1.313-2.326,2.608-3.357,3.854c0.596,0.763,1.127,1.467,1.587,2.06c1.374,1.773,2.102,2.549,2.278,1.421
		c0.176-1.127-0.2-4.157-0.481-7.06L247.43,511.032L247.43,511.032z M240.52,519.605c-0.559,0.821-1.058,1.6-1.508,2.326
		c0.512-0.185,0.874-0.546,1.127-0.991C240.351,520.567,240.488,520.135,240.52,519.605L240.52,519.605z M218.879,517.997
		c-0.122-0.355-0.245-0.732-0.373-1.132c-0.284-0.891-0.59-1.897-0.887-3.057c0.014,0.271,0.03,0.536,0.048,0.789
		c0.211,2.878,0.752,4.381,1.116,3.652C218.817,518.185,218.849,518.099,218.879,517.997L218.879,517.997z M216.909,510.498
		c-0.406-2.324-0.708-5.126-0.762-8.556c-0.088-5.552,0.471-12.751,2.234-18.525c-3.642-0.234-7.117-0.488-10.451-0.756
		c-2.405-0.193-4.735-0.395-6.983-0.601c-0.742,4.203-2.718,10.959-4.188,19.065l-0.178,1.002c0.268-0.536,0.492-0.782,0.607-0.544
		c0.285,0.588-0.086,4.111-0.193,6.907c-0.107,2.796,0.05,4.862,0.255,6.602c0.207,1.738,0.463,3.147,0.777,2.9
		c0.313-0.246,0.687-2.149,1.45-4.463c0.763-2.314,1.915-5.04,2.925-7.107c1.01-2.067,1.879-3.477,1.897-2.818
		c0.016,0.658-0.818,3.384-1.313,6.026c-0.494,2.643-0.649,5.203-0.424,7.317c0.224,2.114,0.827,3.782,1.392,3.207
		s1.092-3.396,1.821-5.933c0.728-2.537,1.657-4.792,2.581-6.577s1.84-3.102,1.735-1.691c-0.105,1.409-1.233,5.544-1.543,8.633
		c-0.312,3.09,0.195,5.133,0.946,6.214c0.212,0.306,0.445,0.534,0.691,0.715c1.773-2.231,2.384-3.712,2.666-6.073
		c0.282-2.36,0.235-5.603,0.494-8.95c0.258-3.348,0.822-6.801,1.174-6.179c0.353,0.623,0.494,5.321,0.764,9.104
		s0.669,6.648,0.939,6.777c0.271,0.13,0.411-2.479,0.634-5.098L216.909,510.498L216.909,510.498z M238.213,484.434
		c-0.41,2.259-0.992,4.701-1.951,7.377c-1.551,4.322-4.088,9.256-5.075,14.541c-0.987,5.286-0.423,10.925-0.059,12.431
		c0.092,0.379,0.17,0.496,0.253,0.393c0.206-0.599,0.334-1.507,0.393-2.476c0.106-1.738-0.012-3.664,0.118-3.147
		c0.057,0.227,0.161,0.925,0.353,1.801c0.123-0.578,0.262-1.206,0.423-1.874c0.451-1.868,1.071-4.046,1.785-6.324
		c-0.862-1.015-1.583-1.843-0.881-1.59c0.244,0.088,0.659,0.307,1.187,0.63c0.812-2.53,1.726-5.146,2.643-7.569
		c1.867-4.936,3.747-9.07,5.814-13.299l0.343-0.698C241.741,484.567,239.959,484.502,238.213,484.434L238.213,484.434z
		 M356.968,520.766c-0.108-0.352-0.217-0.712-0.318-1.081c-0.998-3.629-1.28-8.022-0.939-14.096
		c0.341-6.072,1.304-13.825,2.42-19.076c0.41-1.929,0.84-3.521,1.166-4.821c15.478-1.799,29.015-4.267,39.406-6.425
		c1.671,3.961,3.514,9.687,4.674,16.134c0.984,5.477,1.477,11.474,1.607,17.011c-1.033-2.188-2.205-4.398-2.617-4.83
		c-0.539-0.564,0.216,1.903,0.682,4.992s0.646,6.802,0.539,8.058c-0.108,1.257-0.503,0.059-1.509-1.633s-2.622-3.876-4.436-6.037
		s-3.825-4.299-4.059-4.146s1.312,2.596,2.317,4.945c1.005,2.349,1.473,4.604,1.67,6.848c0.197,2.244,0.125,4.476-0.144,4.852
		c-0.27,0.376-0.737-1.104-1.258-2.702c-0.521-1.597-1.096-3.312-2.118-5.121c-1.024-1.809-2.496-3.712-2.748-3.642
		c-0.251,0.07,0.718,2.114,1.186,4.182c0.467,2.067,0.431,4.158-0.449,6.437c-0.128,0.333-0.275,0.669-0.429,1.005
		c-0.333-0.195-0.652-0.45-0.954-0.816c-0.891-1.081-1.634-3.124-1.648-6.214c-0.016-3.089,0.698-7.224,0.653-8.633
		c-0.045-1.41-0.846-0.094-1.604,1.691s-1.472,4.04-1.945,6.577c-0.477,2.537-0.714,5.357-1.233,5.933
		c-0.521,0.575-1.321-1.093-1.782-3.207s-0.58-4.675-0.356-7.317c0.223-2.643,0.787-5.368,0.698-6.026s-0.832,0.751-1.648,2.818
		c-0.817,2.067-1.708,4.793-2.243,7.107c-0.534,2.313-0.713,4.217-1.01,4.463c-0.297,0.247-0.713-1.162-1.114-2.9
		c-0.4-1.739-0.787-3.806-0.98-6.602s-0.193-6.319-0.549-6.907c-0.356-0.587-1.069,1.762-1.471,4.146
		c-0.4,2.385-0.49,4.805-0.49,6.989s0.09,4.135-0.296,4.04c-0.387-0.094-1.248-2.231-1.768-4.745
		c-0.521-2.514-0.698-5.403-0.445-9.068c0.252-3.664,0.936-8.104,0.772-8.868c-0.164-0.764-1.174,2.149-1.679,5.156
		c-0.506,3.008-0.506,6.108-0.49,8.963c0.015,2.854,0.045,5.462-0.118,5.943c-0.164,0.481-0.521-1.162-1.456-3.782
		c-0.936-2.619-2.451-6.214-2.896-6.777c-0.446-0.564,0.178,1.903,0.563,4.992s0.535,6.802,0.446,8.058
		c-0.09,1.257-0.417,0.059-1.248-1.633c-0.832-1.691-2.169-3.876-3.669-6.037s-3.163-4.299-3.356-4.146s1.085,2.596,1.916,4.945
		c0.831,2.349,1.219,4.604,1.382,6.848c0.163,2.244,0.104,4.476-0.119,4.852s-0.609-1.104-1.04-2.702
		c-0.431-1.597-0.906-3.312-1.752-5.121c-0.847-1.809-2.064-3.712-2.271-3.642c-0.209,0.07,0.593,2.114,0.979,4.182
		c0.386,2.067,0.355,4.158-0.372,6.437L356.968,520.766L356.968,520.766z M334.848,483.823c-0.365,1.696-0.722,3.765-1.041,6.371
		c-0.63,5.149-1.115,12.396-1.516,14.991c-0.399,2.596-0.712,0.543-1.479-3.045c-0.768-3.587-1.989-8.709-3.634-13.185
		c-0.603-1.642-1.264-3.196-2.008-4.61C328.418,484.195,331.648,484.021,334.848,483.823L334.848,483.823z M177.646,518.131
		c-0.07-0.367-0.129-0.767-0.173-1.183c-0.166-1.55-0.126-3.34,0.102-5.227c0.123,0.717,0.26,1.583,0.327,2.454
		C178,515.472,177.938,516.776,177.646,518.131L177.646,518.131z M282.319,462.385l0.029-0.062
		c1.598-3.289,2.396-7.001,2.138-10.877s-1.574-7.917-2.89-11.629c-1.316-3.712-2.631-7.095-3.125-10.994
		c-0.494-3.899-0.165-8.316,0.752-12.217c0.916-3.899,2.419-7.282,3.524-8.622c1.104-1.339,1.809-0.634,2.983,0.752
		c1.175,1.387,2.819,3.453,3.83,5.052c1.01,1.598,1.385,2.725,1.738,6.014c0.352,3.289,0.682,8.739-0.07,14.119
		c-0.752,5.38-2.584,10.689-3.454,15.811c-0.802,4.722-0.784,9.283,0.088,12.672C286.026,462.402,284.177,462.396,282.319,462.385
		L282.319,462.385z M375.448,456.416c-0.973-1.622-2.413-3.769-4.062-6.309c-2.351-3.618-5.122-8.035-6.086-10.29
		c-0.963-2.255-0.117-2.35,0.165-3.313s0-2.795,0.212-3.876c0.211-1.081,0.916-1.41,1.057-2.161c0.141-0.752-0.282-1.927-0.47-2.866
		c-0.188-0.94-0.141-1.645-0.235-2.584c-0.094-0.94-0.328-2.115-0.846-2.608c-0.517-0.493-1.315-0.306-1.902-0.423
		c-0.588-0.117-0.964-0.54-1.48-3.007s-1.175-6.977-1.386-11.276c-0.212-4.299,0.023-8.387,0.54-9.538s1.315,0.635,3.336,4.815
		c2.02,4.183,5.263,10.76,9.209,17.667s8.599,14.143,12.475,19.311c3.876,5.169,6.978,8.27,8.622,10.102
		c1.191,1.328,1.619,1.99,2.192,2.325C390.471,453.751,383.298,455.157,375.448,456.416L375.448,456.416z M299.875,327.394
		c0.999,1.621,2.69,5.286,4.323,7.67c1.632,2.385,3.207,3.488,4.087,4.346c0.881,0.857,1.069,1.468,1.28,2.384
		c0.212,0.917,0.446,2.138,0.341,2.901c-0.106,0.764-0.552,1.069-1.516,1.927c-0.963,0.857-2.443,2.267-3.488,3.147
		c-1.045,0.881-1.656,1.233-2.808,1.48c-1.151,0.247-2.842,0.388-3.653,0.118s-0.74-0.951-0.658-4.393s0.176-9.644-0.047-13.684
		c-0.224-4.041-0.764-5.92-0.729-6.672c0.035-0.751,0.646-0.376,1.104-0.399C298.571,326.195,298.876,325.773,299.875,327.394
		L299.875,327.394z"/>
	<path style="fill-rule:evenodd;clip-rule:evenodd;fill:#E50914;" d="M187.525,342.084c2.74-3.528,7.135,0.991,4.212,3.425
		c4.433-0.557,4.345,5.746,0.558,5.4c3.528,2.741-0.991,7.136-3.425,4.213c0.292,2.322-1.298,3.402-2.829,3.362
		c-0.414-2.075-0.361-4.315-0.204-5.869c0.045-0.442,0.098-0.828,0.15-1.168c0.227,0.304,0.472,0.595,0.745,0.881
		c0.24,0.252,0.676,0.144,0.518-0.129c-0.388-0.67-0.653-1.314-0.838-2.065c0.892,0.191,1.691,0.285,2.605,0.289
		c0.359,0.001,0.462-0.361,0.102-0.436c-0.875-0.181-1.646-0.457-2.441-0.861c0.56-0.495,1.153-0.956,1.708-1.457
		c0.238-0.215-0.015-0.52-0.325-0.366c-0.742,0.37-1.444,0.615-2.219,0.891c-0.157-0.605-0.241-1.196-0.247-1.821
		c-0.002-0.213,0.069-0.761-0.344-0.633c-0.391,0.12-0.568,2.055-0.583,2.453c-0.645-0.284-1.304-0.59-1.981-0.781
		c-0.222-0.063-0.387,0.246-0.28,0.458c0.053,0.106,1.709,1.281,1.931,1.434c-0.439,0.555-0.765,1.118-1.023,1.777
		c-0.105,0.267,0.267,0.631,0.443,0.436c0.205-0.227,0.413-0.426,0.633-0.61c-0.08,1.362-0.072,3.148,0.14,4.906
		c0.099,0.82,0.242,1.633,0.427,2.442c-0.922-0.387-1.607-1.257-1.487-2.576c-2.74,3.529-7.136-0.991-4.213-3.425
		c-4.433,0.558-4.344-5.746-0.557-5.4c-3.528-2.74,0.991-7.135,3.425-4.213C181.567,338.209,187.871,338.297,187.525,342.084
		L187.525,342.084z"/>
</g>
</svg>
